<svg width="15" height="16" xmlns="http://www.w3.org/2000/svg" style="vector-effect: non-scaling-stroke;" stroke="null" preserveAspectRatio="xMidYMid meet">
 <metadata style="vector-effect: non-scaling-stroke;" stroke="null">Created by potrace 1.16, written by Peter Selinger 2001-2019</metadata>

 <g stroke="null">
  <title stroke="null">background</title>
  <rect stroke="null" fill="none" id="canvas_background" height="18" width="17" y="-1" x="-1"/>
 </g>
 <g stroke="null">
  <title stroke="null">Layer 1</title>
  <g stroke="null" id="svg_1" fill="#000000" transform="rotate(-0.12833230197429657 7.496592044829529,8.010179519653345) translate(0,520) scale(0.10000000149011612,-0.10000000149011612) ">
   <path stroke="null" id="svg_2" d="m36.249255,5195.768831c-16.132399,-2.296044 -29.460421,-14.432279 -33.825998,-30.74314c-1.416644,-5.307739 -1.445555,-6.142664 -1.445555,-44.787776c0,-23.049901 0.115644,-37.213811 0.289111,-39.062574c1.8214,-17.384336 13.935155,-31.816616 30.472309,-36.259611c5.146178,-1.371663 6.620644,-1.4313 45.274798,-1.282207c39.116731,0.119275 37.092954,0.029819 42.643887,1.66985c12.460688,3.637889 22.984332,14.104273 27.147532,26.956158c2.110511,6.530308 1.994867,3.965895 2.110511,45.384151c0.086733,26.836883 0.028911,38.227649 -0.202378,40.702606c-1.416644,14.402461 -9.945422,27.015795 -22.753043,33.665379c-3.411511,1.759307 -9.107,3.429157 -13.443666,3.906257c-4.4234,0.4771 -72.740352,0.357825 -76.267507,-0.149094zm74.27264,-13.269348c12.113755,-1.282207 21.278577,-9.392909 24.516621,-21.6186l0.7806,-2.981876l0.115644,-35.335229c0.057822,-23.169176 0,-36.52798 -0.202378,-38.794205c-0.636044,-7.245958 -3.093489,-12.941341 -7.661444,-17.831618c-4.770333,-5.069189 -10.494733,-7.93179 -17.346666,-8.64744c-4.278844,-0.447281 -66.69793,-0.447281 -71.265885,0c-6.880844,0.656013 -12.691977,3.518614 -17.433399,8.557984c-4.596866,4.860458 -7.083222,10.555841 -7.748177,17.593068c-0.375844,4.293901 -0.375844,68.583145 0,72.877047c0.693867,7.395052 3.411511,13.328985 8.413133,18.308718c4.452311,4.413176 10.176711,7.186321 16.305866,7.842334c3.469333,0.387644 67.99893,0.387644 71.526085,0.029819z"/>
   <path stroke="null" id="svg_3" d="m111.244673,5169.945786c-2.139422,-0.834925 -3.960822,-2.624051 -5.059444,-4.920095c-0.809511,-1.66985 -0.954067,-2.266226 -0.954067,-4.234264c0,-3.936076 1.850311,-7.037227 5.204,-8.736896c4.394489,-2.236407 9.453933,-0.9542 12.171577,3.13097c1.214267,1.818944 1.647933,3.399339 1.619022,5.933933c-0.057822,6.619764 -6.880844,11.271491 -12.981088,8.826353z"/>
   <path stroke="null" id="svg_4" d="m71.809919,5159.061939c-5.204,-0.596375 -9.887599,-1.997857 -13.877333,-4.055351c-3.266955,-1.699669 -5.204,-3.071332 -8.152933,-5.725202c-12.113755,-10.973303 -16.103488,-28.536552 -10.061066,-44.251038c3.064578,-7.93179 9.3672,-15.237386 16.912999,-19.590925c6.273711,-3.637889 14.802488,-5.456833 21.88571,-4.651726c9.3672,1.043657 16.912999,4.711364 23.389088,11.390766c11.333155,11.688953 14.33991,29.132927 7.603622,44.370313c-3.411511,7.69324 -10.841666,15.356661 -18.358555,18.934912c-2.630911,1.252388 -7.256689,2.743326 -9.800866,3.160788c-2.139422,0.328006 -8.037288,0.596375 -9.540666,0.417463zm9.569577,-14.283185c1.011889,-0.268369 3.035667,-1.073475 4.481222,-1.789126c16.392599,-8.17034 18.965688,-31.339516 4.799244,-43.117925c-4.452311,-3.697526 -9.800866,-5.635745 -15.669821,-5.635745c-7.459066,0 -14.050799,3.101151 -18.878955,8.88599c-4.018644,4.771001 -6.013511,10.436566 -6.013511,16.966874c0,7.723059 3.758444,15.535573 9.714133,20.246937c2.110511,1.66985 6.302622,3.786982 8.788977,4.442995c3.903,1.013838 8.875711,1.013838 12.77871,0z"/>
  </g>
 </g>
</svg>